<svg version="1.2" xmlns="http://www.w3.org/2000/svg" viewBox="0 0 576 128" width="576" height="128">
	<title>NYC Designed logo</title>
	<style>
		.s0 { fill: #808080 } 
		.s1 { fill: #ffffff } 
		.s2 { fill: #4bc2cb } 
		.s3 { fill: #000000 } 
		.s4 { fill: none;stroke: #808080;stroke-width: 2.1 } 
	</style>
	<g id="Layer 1">
		<path id="&lt;Path&gt;" class="s0" d="m64.1 42.3q-0.1 0-0.1 0c-11.8 0.1-21.3 9.7-21.3 21.5 0 11.8 9.6 21.4 21.4 21.4 11.8 0 21.3-9.6 21.3-21.4q0-0.1 0-0.1c0-11.8-9.6-21.4-21.3-21.4z"/>
		<path id="&lt;Path&gt;" class="s1" d="m42.8 21q0 0-0.1 0c-11.8 0.1-21.3 9.6-21.3 21.4 0 11.9 9.6 21.5 21.4 21.5 11.8 0 21.4-9.6 21.4-21.5q0 0 0-0.1c-0.1-11.7-9.6-21.3-21.4-21.3z"/>
		<path id="&lt;Path&gt;" class="s1" d="m85.3 21q0 0-0.1 0c-11.7 0.1-21.2 9.6-21.2 21.4 0 11.9 9.5 21.5 21.3 21.5 11.8 0 21.4-9.6 21.4-21.5q0 0 0-0.1c-0.1-11.7-9.6-21.3-21.4-21.3z"/>
		<path id="&lt;Path&gt;" class="s1" d="m42.8 63.7q0 0-0.1 0c-11.8 0-21.3 9.6-21.3 21.4 0 11.8 9.6 21.4 21.4 21.4 11.8 0 21.4-9.6 21.4-21.4q0-0.1 0-0.1c-0.1-11.8-9.6-21.3-21.4-21.3z"/>
		<path id="&lt;Path&gt;" class="s1" d="m85.3 63.7q0 0-0.1 0c-11.7 0-21.2 9.6-21.2 21.4 0 11.8 9.5 21.4 21.3 21.4 11.8 0 21.4-9.6 21.4-21.4q0-0.1 0-0.1c-0.1-11.8-9.6-21.3-21.4-21.3z"/>
		<path id="&lt;Path&gt;" class="s0" d="m21.2 42.5c11.8 0.1 21.4-9.4 21.5-21.3 0.1-11.8-9.4-21.5-21.1-21.6q-0.1 0-0.2 0 0 0.1 0 0.1c-0.1 11.8-9.7 21.3-21.4 21.3-0.1 11.7 9.4 21.4 21.2 21.5z"/>
		<path id="&lt;Path&gt;" class="s0" d="m21.4 85.2c-11.8 0-21.4-9.6-21.4-21.4 0-11.8 9.5-21.4 21.3-21.5q0 0 0.1 0 0 0.1 0 0.1c0 11.8 9.6 21.3 21.3 21.4 0 11.7-9.5 21.3-21.3 21.4z"/>
		<path id="&lt;Path&gt;" class="s0" d="m21.2 85.2c11.8-0.1 21.4 9.4 21.5 21.2 0.1 11.8-9.4 21.5-21.1 21.6q-0.1 0-0.2 0 0-0.1 0-0.1c-0.1-11.8-9.7-21.3-21.4-21.2-0.1-11.8 9.4-21.4 21.2-21.5z"/>
		<path id="&lt;Path&gt;" class="s0" d="m107 42.5c-11.8 0.1-21.5-9.4-21.6-21.3-0.1-11.8 9.4-21.5 21.2-21.6q0.1 0 0.1 0 0 0.1 0 0.1c0.1 11.8 9.7 21.3 21.5 21.3 0 11.7-9.4 21.4-21.2 21.5z"/>
		<path id="&lt;Path&gt;" class="s0" d="m106.8 42.3c11.8 0 21.4 9.7 21.4 21.5-0.1 11.8-9.7 21.4-21.5 21.4q0 0-0.1 0 0-0.1 0-0.1c0.1-11.8-9.4-21.4-21.2-21.5 0.1-11.8 9.7-21.3 21.4-21.3z"/>
		<path id="&lt;Path&gt;" class="s2" d="m107 85.2c-11.8-0.1-21.5 9.4-21.6 21.2-0.1 11.8 9.4 21.5 21.2 21.6q0.1 0 0.1 0 0-0.1 0-0.1c0.1-11.8 9.7-21.3 21.5-21.2 0-11.8-9.4-21.4-21.2-21.5z"/>
		<path id="&lt;Path&gt;" class="s0" d="m63.9 128c11.8 0.1 21.4-9.4 21.5-21.3 0.1-11.8-9.3-21.5-21.1-21.6q-0.1 0-0.1 0 0 0.1 0 0.1c-0.1 11.8-9.7 21.3-21.5 21.3 0 11.7 9.4 21.4 21.2 21.5z"/>
		<path id="&lt;Path&gt;" class="s0" d="m64.3-0.6c-11.8-0.1-21.5 9.4-21.6 21.3-0.1 11.8 9.4 21.5 21.2 21.6q0.1 0 0.1 0 0-0.1 0-0.1c0.1-11.8 9.7-21.3 21.4-21.2 0.1-11.8-9.4-21.4-21.1-21.6z"/>
		<path id="&lt;Compound Path&gt;" class="s3" d="m146.9 84.6v-41.5h0.9l27.5 31.8v-31.8h4.1v41.5h-0.9l-27.3-31.4v31.4z"/>
		<path id="&lt;Compound Path&gt;" class="s3" d="m186.2 43.1h4.8l10.6 17.1 10.4-17.1h4.8l-13.2 21.7v19.8h-4v-19.8z"/>
		<path id="&lt;Path&gt;" class="s3" d="m260.7 50.8l-3.2 2.5q-2.7-3.5-6.5-5.3-3.8-1.8-8.3-1.8-5 0-9.2 2.3-4.2 2.4-6.5 6.4-2.4 4.1-2.4 9.1 0 7.6 5.2 12.7 5.2 5 13.1 5 8.7 0 14.6-6.8l3.2 2.5q-3.1 3.9-7.7 6.1-4.6 2.2-10.3 2.2-10.9 0-17.2-7.3-5.2-6.1-5.2-14.8 0-9.1 6.4-15.3 6.3-6.2 15.9-6.2 5.8 0 10.5 2.3 4.6 2.3 7.6 6.4z"/>
		<path id="&lt;Compound Path&gt;" fill-rule="evenodd" class="s0" d="m286.4 84.6v-41.5h8.5q9.3 0 13.5 1.5 6 2.1 9.4 7.4 3.4 5.2 3.4 12.4 0 6.2-2.7 11-2.7 4.7-6.9 7-4.3 2.2-12.1 2.2zm4-3.9h4.8q8.6 0 11.9-1.1 4.6-1.5 7.3-5.4 2.7-4 2.7-9.7 0-6-2.9-10.3-2.9-4.3-8.1-5.8-3.9-1.2-12.8-1.2h-2.9z"/>
		<path id="&lt;Compound Path&gt;" class="s4" d=""/>
		<path id="&lt;Compound Path&gt;" class="s0" d="m329.3 43.1h23.7v4.1h-19.6v13h19.4v4.1h-19.4v16.3h19.4v4h-23.5z"/>
		<path id="&lt;Compound Path&gt;" class="s4" d=""/>
		<path id="&lt;Path&gt;" class="s0" d="m355.9 76.9l3.5-2.1q3.7 6.8 8.5 6.8 2.1 0 4-0.9 1.8-1 2.7-2.7 1-1.6 1-3.4 0-2.1-1.4-4.1-1.9-2.8-7.1-6.7-5.2-3.9-6.4-5.7-2.2-2.9-2.2-6.3 0-2.7 1.3-4.9 1.3-2.3 3.6-3.5 2.4-1.3 5.1-1.3 2.9 0 5.5 1.4 2.5 1.5 5.4 5.4l-3.4 2.5q-2.3-3.1-4-4.1-1.6-0.9-3.6-0.9-2.5 0-4.1 1.5-1.6 1.5-1.6 3.7 0 1.4 0.6 2.7 0.6 1.2 2.1 2.7 0.8 0.8 5.3 4.2 5.4 3.9 7.4 7.1 2 3.1 2 6.2 0 4.5-3.4 7.8-3.5 3.4-8.4 3.4-3.7 0-6.8-2.1-3.1-2-5.6-6.7z"/>
		<path id="&lt;Path&gt;" fill-rule="evenodd" class="s0" d="m392.4 43.1v41.5h-4.2v-41.5z"/>
		<path id="&lt;Path&gt;" class="s0" d="m441.8 50.1l-3.2 3q-3.5-3.4-7.6-5.2-4.1-1.7-8.1-1.7-4.8 0-9.2 2.4-4.4 2.4-6.9 6.5-2.4 4.1-2.4 8.7 0 4.7 2.5 8.9 2.5 4.2 7 6.6 4.4 2.4 9.6 2.4 6.4 0 10.8-3.6 4.5-3.6 5.3-9.4h-13.2v-4h17.8q0 9.7-5.7 15.3-5.6 5.7-15.1 5.7-11.5 0-18.2-7.9-5.1-6-5.1-13.9 0-5.9 3-11 2.9-5.1 8.1-8 5.1-2.8 11.6-2.8 5.3 0 9.9 1.9 4.6 1.9 9.1 6.1z"/>
		<path id="&lt;Compound Path&gt;" class="s0" d="m452.1 84.6v-41.5h0.9l27.6 31.8v-31.8h4v41.5h-0.9l-27.3-31.4v31.4z"/>
		<path id="&lt;Compound Path&gt;" class="s4" d=""/>
		<path id="&lt;Compound Path&gt;" class="s0" d="m494.7 43.1h23.8v4.1h-19.6v13h19.4v4.1h-19.4v16.3h19.4v4h-23.6z"/>
		<path id="&lt;Compound Path&gt;" class="s4" d=""/>
		<path id="&lt;Compound Path&gt;" fill-rule="evenodd" class="s0" d="m525.6 84.6v-41.5h8.6q9.3 0 13.5 1.5 6 2.1 9.4 7.4 3.4 5.2 3.4 12.4 0 6.2-2.7 11-2.7 4.7-7 7-4.3 2.2-12 2.2zm3.9-3.9h4.8q8.6 0 11.9-1.1 4.7-1.5 7.4-5.4 2.6-4 2.6-9.7 0-6-2.9-10.3-2.9-4.3-8-5.8-3.9-1.2-12.8-1.2h-3z"/>
		<path id="&lt;Compound Path&gt;" class="s4" d=""/>
		<path id="&lt;Compound Path&gt;" class="s3" d="m559.9 34.9h2.7v6.7h1v-6.7h2.7v-0.8h-6.4zm7.3 6.6h1v-6.6l1.9 5.2h1.1l1.9-5.2v6.6h1v-7.5h-1.5l-2 5.1-1.9-5.1h-1.5z"/>
	</g>
</svg>